<?xml version="1.0" encoding="UTF-8" standalone="no"?>
<svg xmlns="http://www.w3.org/2000/svg"
     xmlns:xlink="http://www.w3.org/1999/xlink"
     width="576px" height="432px" viewBox="0 0 576 432">
<title>glps_renderer figure</title>
<desc>
Creator: GL2PS 1.3.9, (C) 1999-2015 C. Geuzaine
For: Octave
CreationDate: Wed Jul 27 01:10:15 2016
</desc>
<defs>
</defs>
<g shape-rendering="crispEdges">
<polygon fill="#ffffff" points="74.88,32.4 521.28,384.48 521.28,32.4"/>
<polygon fill="#ffffff" points="74.88,32.4 74.88,384.48 521.28,384.48"/>
<polygon fill="#ffffff" points="424.33,35.6351 424.33,66.7325 518.037,66.7325"/>
<polygon fill="#ffffff" points="424.33,35.6351 518.037,66.7325 518.037,35.6351"/>
<polyline fill="none" stroke="#000000" stroke-width="0.5" stroke-dasharray="16,0" points="521.28,384.48 521.28,32.4"/>
<polyline fill="none" stroke="#000000" stroke-width="0.5" stroke-dasharray="16,0" points="74.88,384.48 74.88,380.015"/>
<polyline fill="none" stroke="#000000" stroke-width="0.5" stroke-dasharray="16,0" points="74.88,32.4 74.88,36.865"/>
<polyline fill="none" stroke="#000000" stroke-width="0.5" stroke-dasharray="16,0" points="164.16,384.48 164.16,380.015"/>
<polyline fill="none" stroke="#000000" stroke-width="0.5" stroke-dasharray="16,0" points="164.16,32.4 164.16,36.865"/>
<polyline fill="none" stroke="#000000" stroke-width="0.5" stroke-dasharray="16,0" points="253.44,384.48 253.44,380.015"/>
<polyline fill="none" stroke="#000000" stroke-width="0.5" stroke-dasharray="16,0" points="253.44,32.4 253.44,36.865"/>
<polyline fill="none" stroke="#000000" stroke-width="0.5" stroke-dasharray="16,0" points="342.72,384.48 342.72,380.015"/>
<polyline fill="none" stroke="#000000" stroke-width="0.5" stroke-dasharray="16,0" points="342.72,32.4 342.72,36.865"/>
<polyline fill="none" stroke="#000000" stroke-width="0.5" stroke-dasharray="16,0" points="432,384.48 432,380.015"/>
<polyline fill="none" stroke="#000000" stroke-width="0.5" stroke-dasharray="16,0" points="432,32.4 432,36.865"/>
<polyline fill="none" stroke="#000000" stroke-width="0.5" stroke-dasharray="16,0" points="521.28,384.48 521.28,380.015"/>
<polyline fill="none" stroke="#000000" stroke-width="0.5" stroke-dasharray="16,0" points="521.28,32.4 521.28,36.865"/>
<text fill="#000000" x="74.88" y="389.481" font-size="10" text-anchor="middle" baseline-shift="-10" font-family="Helvetica">0</text>
<text fill="#000000" x="164.16" y="389.481" font-size="10" text-anchor="middle" baseline-shift="-10" font-family="Helvetica">5</text>
<text fill="#000000" x="253.44" y="389.481" font-size="10" text-anchor="middle" baseline-shift="-10" font-family="Helvetica">10</text>
<text fill="#000000" x="342.72" y="389.481" font-size="10" text-anchor="middle" baseline-shift="-10" font-family="Helvetica">15</text>
<text fill="#000000" x="432" y="389.481" font-size="10" text-anchor="middle" baseline-shift="-10" font-family="Helvetica">20</text>
<text fill="#000000" x="521.28" y="389.481" font-size="10" text-anchor="middle" baseline-shift="-10" font-family="Helvetica">25</text>
<polyline fill="none" stroke="#000000" stroke-width="0.5" stroke-dasharray="16,0" points="74.88,384.48 79.348,384.48"/>
<polyline fill="none" stroke="#000000" stroke-width="0.5" stroke-dasharray="16,0" points="521.28,384.48 516.812,384.48"/>
<polyline fill="none" stroke="#000000" stroke-width="0.5" stroke-dasharray="16,0" points="74.88,334.183 79.348,334.183"/>
<polyline fill="none" stroke="#000000" stroke-width="0.5" stroke-dasharray="16,0" points="521.28,334.183 516.812,334.183"/>
<polyline fill="none" stroke="#000000" stroke-width="0.5" stroke-dasharray="16,0" points="74.88,283.886 79.348,283.886"/>
<polyline fill="none" stroke="#000000" stroke-width="0.5" stroke-dasharray="16,0" points="521.28,283.886 516.812,283.886"/>
<polyline fill="none" stroke="#000000" stroke-width="0.5" stroke-dasharray="16,0" points="74.88,233.589 79.348,233.589"/>
<polyline fill="none" stroke="#000000" stroke-width="0.5" stroke-dasharray="16,0" points="521.28,233.589 516.812,233.589"/>
<polyline fill="none" stroke="#000000" stroke-width="0.5" stroke-dasharray="16,0" points="74.88,183.291 79.348,183.291"/>
<polyline fill="none" stroke="#000000" stroke-width="0.5" stroke-dasharray="16,0" points="521.28,183.291 516.812,183.291"/>
<polyline fill="none" stroke="#000000" stroke-width="0.5" stroke-dasharray="16,0" points="74.88,132.994 79.348,132.994"/>
<polyline fill="none" stroke="#000000" stroke-width="0.5" stroke-dasharray="16,0" points="521.28,132.994 516.812,132.994"/>
<polyline fill="none" stroke="#000000" stroke-width="0.5" stroke-dasharray="16,0" points="74.88,82.6971 79.348,82.6971"/>
<polyline fill="none" stroke="#000000" stroke-width="0.5" stroke-dasharray="16,0" points="521.28,82.6971 516.812,82.6971"/>
<polyline fill="none" stroke="#000000" stroke-width="0.5" stroke-dasharray="16,0" points="74.88,32.4 79.348,32.4"/>
<polyline fill="none" stroke="#000000" stroke-width="0.5" stroke-dasharray="16,0" points="521.28,32.4 516.812,32.4"/>
<text fill="#000000" x="69.8755" y="384.48" font-size="10" text-anchor="end" baseline-shift="-5" font-family="Helvetica">-5</text>
<text fill="#000000" x="69.8755" y="334.183" font-size="10" text-anchor="end" baseline-shift="-5" font-family="Helvetica">0</text>
<text fill="#000000" x="69.8755" y="283.886" font-size="10" text-anchor="end" baseline-shift="-5" font-family="Helvetica">5</text>
<text fill="#000000" x="69.8755" y="233.589" font-size="10" text-anchor="end" baseline-shift="-5" font-family="Helvetica">10</text>
<text fill="#000000" x="69.8755" y="183.291" font-size="10" text-anchor="end" baseline-shift="-5" font-family="Helvetica">15</text>
<text fill="#000000" x="69.8755" y="132.994" font-size="10" text-anchor="end" baseline-shift="-5" font-family="Helvetica">20</text>
<text fill="#000000" x="69.8755" y="82.6971" font-size="10" text-anchor="end" baseline-shift="-5" font-family="Helvetica">25</text>
<text fill="#000000" x="69.8755" y="32.4" font-size="10" text-anchor="end" baseline-shift="-5" font-family="Helvetica">30</text>
<text fill="#000000" x="298.08" y="401.481" font-size="10" text-anchor="middle" baseline-shift="-10" font-family="Helvetica">Population in 10ks</text>
<text fill="#000000" x="51.8755" y="208.44" font-size="10" transform="rotate(-90, 51.8755, 208.44)" text-anchor="middle" baseline-shift="0" font-family="Helvetica">Profit in $10ks</text>
<polyline fill="none" stroke="#ff0000" stroke-width="0.5" points="178.982,152.217 188.982,162.217"/>
<polyline fill="none" stroke="#ff0000" stroke-width="0.5" points="178.982,162.217 188.982,152.217"/>
<polyline fill="none" stroke="#ff0000" stroke-width="0.5" points="168.583,237.338 178.583,247.338"/>
<polyline fill="none" stroke="#ff0000" stroke-width="0.5" points="168.583,247.338 178.583,237.338"/>
<polyline fill="none" stroke="#ff0000" stroke-width="0.5" points="221.988,191.751 231.988,201.751"/>
<polyline fill="none" stroke="#ff0000" stroke-width="0.5" points="221.988,201.751 231.988,191.751"/>
<polyline fill="none" stroke="#ff0000" stroke-width="0.5" points="194.929,209.938 204.929,219.938"/>
<polyline fill="none" stroke="#ff0000" stroke-width="0.5" points="194.929,219.938 204.929,209.938"/>
<polyline fill="none" stroke="#ff0000" stroke-width="0.5" points="174.513,260.544 184.513,270.544"/>
<polyline fill="none" stroke="#ff0000" stroke-width="0.5" points="174.513,270.544 184.513,260.544"/>
<polyline fill="none" stroke="#ff0000" stroke-width="0.5" points="219.565,209.616 229.565,219.616"/>
<polyline fill="none" stroke="#ff0000" stroke-width="0.5" points="219.565,219.616 229.565,209.616"/>
<polyline fill="none" stroke="#ff0000" stroke-width="0.5" points="203.379,285.441 213.379,295.441"/>
<polyline fill="none" stroke="#ff0000" stroke-width="0.5" points="203.379,295.441 213.379,285.441"/>
<polyline fill="none" stroke="#ff0000" stroke-width="0.5" points="223.051,208.47 233.051,218.47"/>
<polyline fill="none" stroke="#ff0000" stroke-width="0.5" points="223.051,218.47 233.051,208.47"/>
<polyline fill="none" stroke="#ff0000" stroke-width="0.5" points="185.698,262.804 195.698,272.804"/>
<polyline fill="none" stroke="#ff0000" stroke-width="0.5" points="185.698,272.804 195.698,262.804"/>
<polyline fill="none" stroke="#ff0000" stroke-width="0.5" points="160.135,290.79 170.135,300.79"/>
<polyline fill="none" stroke="#ff0000" stroke-width="0.5" points="160.135,300.79 170.135,290.79"/>
<polyline fill="none" stroke="#ff0000" stroke-width="0.5" points="171.85,296.468 181.85,306.468"/>
<polyline fill="none" stroke="#ff0000" stroke-width="0.5" points="171.85,306.468 181.85,296.468"/>
<polyline fill="none" stroke="#ff0000" stroke-width="0.5" points="322.792,173.211 332.792,183.211"/>
<polyline fill="none" stroke="#ff0000" stroke-width="0.5" points="322.792,183.211 332.792,173.211"/>
<polyline fill="none" stroke="#ff0000" stroke-width="0.5" points="172.266,297.444 182.266,307.444"/>
<polyline fill="none" stroke="#ff0000" stroke-width="0.5" points="172.266,307.444 182.266,297.444"/>
<polyline fill="none" stroke="#ff0000" stroke-width="0.5" points="220.02,256.495 230.02,266.495"/>
<polyline fill="none" stroke="#ff0000" stroke-width="0.5" points="220.02,266.495 230.02,256.495"/>
<polyline fill="none" stroke="#ff0000" stroke-width="0.5" points="170.6,321.978 180.6,331.978"/>
<polyline fill="none" stroke="#ff0000" stroke-width="0.5" points="170.6,331.978 180.6,321.978"/>
<polyline fill="none" stroke="#ff0000" stroke-width="0.5" points="165.935,293.845 175.935,303.845"/>
<polyline fill="none" stroke="#ff0000" stroke-width="0.5" points="165.935,303.845 175.935,293.845"/>
<polyline fill="none" stroke="#ff0000" stroke-width="0.5" points="183.541,275.82 193.541,285.82"/>
<polyline fill="none" stroke="#ff0000" stroke-width="0.5" points="183.541,285.82 193.541,275.82"/>
<polyline fill="none" stroke="#ff0000" stroke-width="0.5" points="161.483,323.542 171.483,333.542"/>
<polyline fill="none" stroke="#ff0000" stroke-width="0.5" points="161.483,333.542 171.483,323.542"/>
<polyline fill="none" stroke="#ff0000" stroke-width="0.5" points="184.687,292.448 194.687,302.448"/>
<polyline fill="none" stroke="#ff0000" stroke-width="0.5" points="184.687,302.448 194.687,292.448"/>
<polyline fill="none" stroke="#ff0000" stroke-width="0.5" points="196.136,274.97 206.136,284.97"/>
<polyline fill="none" stroke="#ff0000" stroke-width="0.5" points="196.136,284.97 206.136,274.97"/>
<polyline fill="none" stroke="#ff0000" stroke-width="0.5" points="180.393,297.61 190.393,307.61"/>
<polyline fill="none" stroke="#ff0000" stroke-width="0.5" points="180.393,307.61 190.393,297.61"/>
<polyline fill="none" stroke="#ff0000" stroke-width="0.5" points="431.821,110.219 441.821,120.219"/>
<polyline fill="none" stroke="#ff0000" stroke-width="0.5" points="431.821,120.219 441.821,110.219"/>
<polyline fill="none" stroke="#ff0000" stroke-width="0.5" points="167.911,286.299 177.911,296.299"/>
<polyline fill="none" stroke="#ff0000" stroke-width="0.5" points="167.911,296.299 177.911,286.299"/>
<polyline fill="none" stroke="#ff0000" stroke-width="0.5" points="182.839,277 192.839,287"/>
<polyline fill="none" stroke="#ff0000" stroke-width="0.5" points="182.839,287 192.839,277"/>
<polyline fill="none" stroke="#ff0000" stroke-width="0.5" points="169.247,298.175 179.247,308.175"/>
<polyline fill="none" stroke="#ff0000" stroke-width="0.5" points="169.247,308.175 179.247,298.175"/>
<polyline fill="none" stroke="#ff0000" stroke-width="0.5" points="408.162,101.458 418.162,111.458"/>
<polyline fill="none" stroke="#ff0000" stroke-width="0.5" points="408.162,111.458 418.162,101.458"/>
<polyline fill="none" stroke="#ff0000" stroke-width="0.5" points="298.937,193.371 308.937,203.371"/>
<polyline fill="none" stroke="#ff0000" stroke-width="0.5" points="298.937,203.371 308.937,193.371"/>
<polyline fill="none" stroke="#ff0000" stroke-width="0.5" points="265.528,258.297 275.528,268.297"/>
<polyline fill="none" stroke="#ff0000" stroke-width="0.5" points="265.528,268.297 275.528,258.297"/>
<polyline fill="none" stroke="#ff0000" stroke-width="0.5" points="305.151,181.39 315.151,191.39"/>
<polyline fill="none" stroke="#ff0000" stroke-width="0.5" points="305.151,191.39 315.151,181.39"/>
<polyline fill="none" stroke="#ff0000" stroke-width="0.5" points="466.337,86.2778 476.337,96.2778"/>
<polyline fill="none" stroke="#ff0000" stroke-width="0.5" points="466.337,96.2778 476.337,86.2778"/>
<polyline fill="none" stroke="#ff0000" stroke-width="0.5" points="163.667,341.455 173.667,351.455"/>
<polyline fill="none" stroke="#ff0000" stroke-width="0.5" points="163.667,351.455 173.667,341.455"/>
<polyline fill="none" stroke="#ff0000" stroke-width="0.5" points="187.54,268.86 197.54,278.86"/>
<polyline fill="none" stroke="#ff0000" stroke-width="0.5" points="187.54,278.86 197.54,268.86"/>
<polyline fill="none" stroke="#ff0000" stroke-width="0.5" points="235.016,207.122 245.016,217.122"/>
<polyline fill="none" stroke="#ff0000" stroke-width="0.5" points="235.016,217.122 245.016,207.122"/>
<polyline fill="none" stroke="#ff0000" stroke-width="0.5" points="175.084,310.578 185.084,320.578"/>
<polyline fill="none" stroke="#ff0000" stroke-width="0.5" points="175.084,320.578 185.084,310.578"/>
<polyline fill="none" stroke="#ff0000" stroke-width="0.5" points="216.497,263.368 226.497,273.368"/>
<polyline fill="none" stroke="#ff0000" stroke-width="0.5" points="216.497,273.368 226.497,263.368"/>
<polyline fill="none" stroke="#ff0000" stroke-width="0.5" points="211.539,283.289 221.539,293.289"/>
<polyline fill="none" stroke="#ff0000" stroke-width="0.5" points="211.539,293.289 221.539,283.289"/>
<polyline fill="none" stroke="#ff0000" stroke-width="0.5" points="214.44,287.774 224.44,297.774"/>
<polyline fill="none" stroke="#ff0000" stroke-width="0.5" points="214.44,297.774 224.44,287.774"/>
<polyline fill="none" stroke="#ff0000" stroke-width="0.5" points="169.986,295.053 179.986,305.053"/>
<polyline fill="none" stroke="#ff0000" stroke-width="0.5" points="169.986,305.053 179.986,295.053"/>
<polyline fill="none" stroke="#ff0000" stroke-width="0.5" points="299.08,227.412 309.08,237.412"/>
<polyline fill="none" stroke="#ff0000" stroke-width="0.5" points="299.08,237.412 309.08,227.412"/>
<polyline fill="none" stroke="#ff0000" stroke-width="0.5" points="183.326,273.882 193.326,283.882"/>
<polyline fill="none" stroke="#ff0000" stroke-width="0.5" points="183.326,283.882 193.326,273.882"/>
<polyline fill="none" stroke="#ff0000" stroke-width="0.5" points="166.426,323.584 176.426,333.584"/>
<polyline fill="none" stroke="#ff0000" stroke-width="0.5" points="166.426,333.584 176.426,323.584"/>
<polyline fill="none" stroke="#ff0000" stroke-width="0.5" points="192.774,289.835 202.774,299.835"/>
<polyline fill="none" stroke="#ff0000" stroke-width="0.5" points="192.774,299.835 202.774,289.835"/>
<polyline fill="none" stroke="#ff0000" stroke-width="0.5" points="278.938,275.009 288.938,285.009"/>
<polyline fill="none" stroke="#ff0000" stroke-width="0.5" points="278.938,285.009 288.938,275.009"/>
<polyline fill="none" stroke="#ff0000" stroke-width="0.5" points="172.975,304.632 182.975,314.632"/>
<polyline fill="none" stroke="#ff0000" stroke-width="0.5" points="172.975,314.632 182.975,304.632"/>
<polyline fill="none" stroke="#ff0000" stroke-width="0.5" points="209.598,261.465 219.598,271.465"/>
<polyline fill="none" stroke="#ff0000" stroke-width="0.5" points="209.598,271.465 219.598,261.465"/>
<polyline fill="none" stroke="#ff0000" stroke-width="0.5" points="196.534,318.658 206.534,328.658"/>
<polyline fill="none" stroke="#ff0000" stroke-width="0.5" points="196.534,328.658 206.534,318.658"/>
<polyline fill="none" stroke="#ff0000" stroke-width="0.5" points="160.414,277.541 170.413,287.541"/>
<polyline fill="none" stroke="#ff0000" stroke-width="0.5" points="160.414,287.541 170.413,277.541"/>
<polyline fill="none" stroke="#ff0000" stroke-width="0.5" points="173.47,310.633 183.47,320.633"/>
<polyline fill="none" stroke="#ff0000" stroke-width="0.5" points="173.47,320.633 183.47,310.633"/>
<polyline fill="none" stroke="#ff0000" stroke-width="0.5" points="278.795,248.664 288.795,258.664"/>
<polyline fill="none" stroke="#ff0000" stroke-width="0.5" points="278.795,258.664 288.795,248.664"/>
<polyline fill="none" stroke="#ff0000" stroke-width="0.5" points="168.831,318.943 178.831,328.943"/>
<polyline fill="none" stroke="#ff0000" stroke-width="0.5" points="168.831,328.943 178.831,318.943"/>
<polyline fill="none" stroke="#ff0000" stroke-width="0.5" points="204.518,261.278 214.518,271.278"/>
<polyline fill="none" stroke="#ff0000" stroke-width="0.5" points="204.518,271.278 214.518,261.278"/>
<polyline fill="none" stroke="#ff0000" stroke-width="0.5" points="164.654,310.678 174.654,320.678"/>
<polyline fill="none" stroke="#ff0000" stroke-width="0.5" points="164.654,320.678 174.654,310.678"/>
<polyline fill="none" stroke="#ff0000" stroke-width="0.5" points="202.441,286.043 212.441,296.043"/>
<polyline fill="none" stroke="#ff0000" stroke-width="0.5" points="202.441,296.043 212.441,286.043"/>
<polyline fill="none" stroke="#ff0000" stroke-width="0.5" points="205.641,278.905 215.641,288.905"/>
<polyline fill="none" stroke="#ff0000" stroke-width="0.5" points="205.641,288.905 215.641,278.905"/>
<polyline fill="none" stroke="#ff0000" stroke-width="0.5" points="182.958,314.865 192.958,324.865"/>
<polyline fill="none" stroke="#ff0000" stroke-width="0.5" points="182.958,324.865 192.958,314.865"/>
<polyline fill="none" stroke="#ff0000" stroke-width="0.5" points="183.425,343.478 193.425,353.478"/>
<polyline fill="none" stroke="#ff0000" stroke-width="0.5" points="183.425,353.478 193.425,343.478"/>
<polyline fill="none" stroke="#ff0000" stroke-width="0.5" points="181.912,304.28 191.912,314.28"/>
<polyline fill="none" stroke="#ff0000" stroke-width="0.5" points="181.912,314.28 191.912,304.28"/>
<polyline fill="none" stroke="#ff0000" stroke-width="0.5" points="170.582,282.867 180.582,292.867"/>
<polyline fill="none" stroke="#ff0000" stroke-width="0.5" points="170.582,292.867 180.582,282.867"/>
<polyline fill="none" stroke="#ff0000" stroke-width="0.5" points="236.123,289.323 246.123,299.323"/>
<polyline fill="none" stroke="#ff0000" stroke-width="0.5" points="236.123,299.323 246.123,289.323"/>
<polyline fill="none" stroke="#ff0000" stroke-width="0.5" points="238.683,274.72 248.683,284.72"/>
<polyline fill="none" stroke="#ff0000" stroke-width="0.5" points="238.683,284.72 248.683,274.72"/>
<polyline fill="none" stroke="#ff0000" stroke-width="0.5" points="227.466,277.182 237.466,287.182"/>
<polyline fill="none" stroke="#ff0000" stroke-width="0.5" points="227.466,287.182 237.466,277.182"/>
<polyline fill="none" stroke="#ff0000" stroke-width="0.5" points="162.362,336.655 172.362,346.655"/>
<polyline fill="none" stroke="#ff0000" stroke-width="0.5" points="162.362,346.655 172.362,336.655"/>
<polyline fill="none" stroke="#ff0000" stroke-width="0.5" points="449.838,148.827 459.838,158.827"/>
<polyline fill="none" stroke="#ff0000" stroke-width="0.5" points="449.838,158.827 459.838,148.827"/>
<polyline fill="none" stroke="#ff0000" stroke-width="0.5" points="336.077,207.926 346.077,217.926"/>
<polyline fill="none" stroke="#ff0000" stroke-width="0.5" points="336.077,217.926 346.077,207.926"/>
<polyline fill="none" stroke="#ff0000" stroke-width="0.5" points="408.412,157.629 418.412,167.629"/>
<polyline fill="none" stroke="#ff0000" stroke-width="0.5" points="408.412,167.629 418.412,157.629"/>
<polyline fill="none" stroke="#ff0000" stroke-width="0.5" points="198.768,280.041 208.768,290.041"/>
<polyline fill="none" stroke="#ff0000" stroke-width="0.5" points="198.768,290.041 208.768,280.041"/>
<polyline fill="none" stroke="#ff0000" stroke-width="0.5" points="217.997,271.399 227.997,281.399"/>
<polyline fill="none" stroke="#ff0000" stroke-width="0.5" points="217.997,281.399 227.997,271.399"/>
<polyline fill="none" stroke="#ff0000" stroke-width="0.5" points="252.654,250.967 262.654,260.967"/>
<polyline fill="none" stroke="#ff0000" stroke-width="0.5" points="252.654,260.967 262.654,250.967"/>
<polyline fill="none" stroke="#ff0000" stroke-width="0.5" points="168.077,318.949 178.077,328.949"/>
<polyline fill="none" stroke="#ff0000" stroke-width="0.5" points="168.077,328.949 178.077,318.949"/>
<polyline fill="none" stroke="#ff0000" stroke-width="0.5" points="433.089,118.015 443.089,128.015"/>
<polyline fill="none" stroke="#ff0000" stroke-width="0.5" points="433.089,128.015 443.089,118.015"/>
<polyline fill="none" stroke="#ff0000" stroke-width="0.5" points="250.868,261.987 260.868,271.987"/>
<polyline fill="none" stroke="#ff0000" stroke-width="0.5" points="250.868,271.987 260.868,261.987"/>
<polyline fill="none" stroke="#ff0000" stroke-width="0.5" points="200.845,288.685 210.845,298.685"/>
<polyline fill="none" stroke="#ff0000" stroke-width="0.5" points="200.845,298.685 210.845,288.685"/>
<polyline fill="none" stroke="#ff0000" stroke-width="0.5" points="177.127,316.323 187.127,326.323"/>
<polyline fill="none" stroke="#ff0000" stroke-width="0.5" points="177.127,326.323 187.127,316.323"/>
<polyline fill="none" stroke="#ff0000" stroke-width="0.5" points="198.906,295.573 208.906,305.573"/>
<polyline fill="none" stroke="#ff0000" stroke-width="0.5" points="198.906,305.573 208.906,295.573"/>
<polyline fill="none" stroke="#ff0000" stroke-width="0.5" points="159.64,356.149 169.64,366.149"/>
<polyline fill="none" stroke="#ff0000" stroke-width="0.5" points="159.64,366.149 169.64,356.149"/>
<polyline fill="none" stroke="#ff0000" stroke-width="0.5" points="186.799,326.197 196.799,336.197"/>
<polyline fill="none" stroke="#ff0000" stroke-width="0.5" points="186.799,336.197 196.799,326.197"/>
<polyline fill="none" stroke="#ff0000" stroke-width="0.5" points="204.489,290.107 214.489,300.107"/>
<polyline fill="none" stroke="#ff0000" stroke-width="0.5" points="204.489,300.107 214.489,290.107"/>
<polyline fill="none" stroke="#ff0000" stroke-width="0.5" points="159.812,271.83 169.812,281.83"/>
<polyline fill="none" stroke="#ff0000" stroke-width="0.5" points="159.812,281.83 169.812,271.83"/>
<polyline fill="none" stroke="#ff0000" stroke-width="0.5" points="253.333,261.256 263.333,271.256"/>
<polyline fill="none" stroke="#ff0000" stroke-width="0.5" points="253.333,271.256 263.333,261.256"/>
<polyline fill="none" stroke="#ff0000" stroke-width="0.5" points="161.083,308.485 171.083,318.485"/>
<polyline fill="none" stroke="#ff0000" stroke-width="0.5" points="161.083,318.485 171.083,308.485"/>
<polyline fill="none" stroke="#ff0000" stroke-width="0.5" points="172.181,324.359 182.181,334.359"/>
<polyline fill="none" stroke="#ff0000" stroke-width="0.5" points="172.181,334.359 182.181,324.359"/>
<polyline fill="none" stroke="#ff0000" stroke-width="0.5" points="162.524,327.129 172.524,337.129"/>
<polyline fill="none" stroke="#ff0000" stroke-width="0.5" points="162.524,337.129 172.524,327.129"/>
<polyline fill="none" stroke="#ff0000" stroke-width="0.5" points="183.367,322.356 193.367,332.356"/>
<polyline fill="none" stroke="#ff0000" stroke-width="0.5" points="183.367,332.356 193.367,322.356"/>
<polyline fill="none" stroke="#ff0000" stroke-width="0.5" points="244.31,253.3 254.31,263.3"/>
<polyline fill="none" stroke="#ff0000" stroke-width="0.5" points="244.31,263.3 254.31,253.3"/>
<polyline fill="none" stroke="#ff0000" stroke-width="0.5" points="186.228,275.429 196.228,285.429"/>
<polyline fill="none" stroke="#ff0000" stroke-width="0.5" points="186.228,285.429 196.228,275.429"/>
<polyline fill="none" stroke="#ff0000" stroke-width="0.5" points="221.963,286.516 231.963,296.516"/>
<polyline fill="none" stroke="#ff0000" stroke-width="0.5" points="221.963,296.516 231.963,286.516"/>
<polyline fill="none" stroke="#ff0000" stroke-width="0.5" points="233.802,260.798 243.802,270.798"/>
<polyline fill="none" stroke="#ff0000" stroke-width="0.5" points="233.802,270.798 243.802,260.798"/>
<polyline fill="none" stroke="#ff0000" stroke-width="0.5" points="177.052,319.858 187.052,329.858"/>
<polyline fill="none" stroke="#ff0000" stroke-width="0.5" points="177.052,329.858 187.052,319.858"/>
<polyline fill="none" stroke="#ff0000" stroke-width="0.5" points="168.452,327.654 178.452,337.654"/>
<polyline fill="none" stroke="#ff0000" stroke-width="0.5" points="168.452,337.654 178.452,327.654"/>
<polyline fill="none" stroke="#ff0000" stroke-width="0.5" points="160.221,300.801 170.221,310.801"/>
<polyline fill="none" stroke="#ff0000" stroke-width="0.5" points="160.221,310.801 170.221,300.801"/>
<polyline fill="none" stroke="#ff0000" stroke-width="0.5" points="171.797,310.622 181.797,320.622"/>
<polyline fill="none" stroke="#ff0000" stroke-width="0.5" points="171.797,320.622 181.797,310.622"/>
<polyline fill="none" stroke="#ff0000" stroke-width="0.5" points="206.239,285.969 216.239,295.969"/>
<polyline fill="none" stroke="#ff0000" stroke-width="0.5" points="206.239,295.969 216.239,285.969"/>
<polyline fill="none" stroke="#ff0000" stroke-width="0.5" points="174.707,256.726 184.707,266.726"/>
<polyline fill="none" stroke="#ff0000" stroke-width="0.5" points="174.707,266.726 184.707,256.726"/>
<polyline fill="none" stroke="#ff0000" stroke-width="0.5" points="164.613,309.196 174.613,319.196"/>
<polyline fill="none" stroke="#ff0000" stroke-width="0.5" points="164.613,319.196 174.613,309.196"/>
<polyline fill="none" stroke="#ff0000" stroke-width="0.5" points="217.967,327.729 227.967,337.729"/>
<polyline fill="none" stroke="#ff0000" stroke-width="0.5" points="217.967,337.729 227.967,327.729"/>
<polyline fill="none" stroke="#ff0000" stroke-width="0.5" points="309.043,238.094 319.043,248.094"/>
<polyline fill="none" stroke="#ff0000" stroke-width="0.5" points="309.043,248.094 319.043,238.094"/>
<polyline fill="none" stroke="#ff0000" stroke-width="0.5" points="166.961,322.976 176.961,332.976"/>
<polyline fill="none" stroke="#ff0000" stroke-width="0.5" points="166.961,332.976 176.961,322.976"/>
<polyline fill="none" stroke="#0000ff" stroke-width="0.5" points="146.304,323.768 146.483,323.651 146.661,323.534 146.84,323.416 147.018,323.299 147.197,323.182 147.375,323.064 147.554,322.947 147.732,322.83 147.911,322.712 148.09,322.595 148.268,322.478 148.447,322.36 148.625,322.243 148.804,322.126 148.982,322.008 149.161,321.891 149.34,321.774 149.518,321.656 149.697,321.539 149.875,321.422 150.054,321.304 150.232,321.187 150.411,321.07 150.589,320.952 150.768,320.835 150.947,320.718 151.125,320.6 151.304,320.483 151.482,320.366 151.661,320.248 151.839,320.131 152.018,320.014 152.196,319.896 152.375,319.779 152.554,319.662 152.732,319.544 152.911,319.427 153.089,319.31 153.268,319.192 153.446,319.075 153.625,318.958 153.804,318.84 153.982,318.723 154.161,318.606 154.339,318.488 154.518,318.371 154.696,318.254 154.875,318.136 155.053,318.019 155.232,317.902 155.411,317.784 155.589,317.667 155.768,317.55 155.946,317.432 156.125,317.315 156.303,317.198 156.482,317.08 156.66,316.963 156.839,316.846 157.018,316.728 157.196,316.611 157.375,316.494 157.553,316.376 157.732,316.259 157.91,316.142 158.089,316.024 158.268,315.907 158.446,315.79 158.625,315.672 158.803,315.555 158.982,315.438 159.16,315.32 159.339,315.203 159.517,315.086 159.696,314.968 159.875,314.851 160.053,314.734 160.232,314.616 160.41,314.499 160.589,314.382 160.767,314.264 160.946,314.147 161.124,314.03 161.303,313.912 161.482,313.795 161.66,313.678 161.839,313.56 162.017,313.443 162.196,313.326 162.374,313.208 162.553,313.091 162.732,312.974 162.91,312.856 163.089,312.739 163.267,312.622 163.446,312.504 163.624,312.387 163.803,312.27 163.981,312.152 164.16,312.035 164.339,311.918 164.517,311.8 164.696,311.683 164.874,311.566 165.053,311.448 165.231,311.331 165.41,311.214 165.588,311.096 165.767,310.979 165.946,310.862 166.124,310.744 166.303,310.627 166.481,310.51 166.66,310.392 166.838,310.275 167.017,310.158 167.196,310.04 167.374,309.923 167.553,309.806 167.731,309.688 167.91,309.571 168.088,309.454 168.267,309.336 168.445,309.219 168.624,309.102 168.803,308.984 168.981,308.867 169.16,308.75 169.338,308.632 169.517,308.515 169.695,308.398 169.874,308.28 170.052,308.163 170.231,308.046 170.41,307.928 170.588,307.811 170.767,307.694 170.945,307.576 171.124,307.459 171.302,307.342 171.481,307.224 171.66,307.107 171.838,306.99 172.017,306.872 172.195,306.755 172.374,306.638 172.552,306.52 172.731,306.403 172.909,306.286 173.088,306.168 173.267,306.051 173.445,305.934 173.624,305.816 173.802,305.699 173.981,305.582 174.159,305.464 174.338,305.347 174.516,305.23 174.695,305.112 174.874,304.995 175.052,304.878 175.231,304.76 175.409,304.643 175.588,304.526 175.766,304.408 175.945,304.291 176.124,304.174 176.302,304.056 176.481,303.939 176.659,303.822 176.838,303.704 177.016,303.587 177.195,303.47 177.373,303.352 177.552,303.235 177.731,303.118 177.909,303 178.088,302.883 178.266,302.766 178.445,302.648 178.623,302.531 178.802,302.414 178.98,302.296 179.159,302.179 179.338,302.062 179.516,301.944 179.695,301.827 179.873,301.71 180.052,301.592 180.23,301.475 180.409,301.358 180.588,301.24 180.766,301.123 180.945,301.006 181.123,300.888 181.302,300.771 181.48,300.654 181.659,300.536 181.837,300.419 182.016,300.302 182.195,300.184 182.373,300.067 182.552,299.95 182.73,299.832 182.909,299.715 183.087,299.598 183.266,299.48 183.444,299.363 183.623,299.246 183.802,299.128 183.98,299.011 184.159,298.894 184.337,298.776 184.516,298.659 184.694,298.542 184.873,298.424 185.052,298.307 185.23,298.19 185.409,298.072 185.587,297.955 185.766,297.838 185.944,297.72 186.123,297.603 186.301,297.486 186.48,297.368 186.659,297.251 186.837,297.134 187.016,297.016 187.194,296.899 187.373,296.782 187.551,296.664 187.73,296.547 187.908,296.43 188.087,296.312 188.266,296.195 188.444,296.078 188.623,295.96 188.801,295.843 188.98,295.726 189.158,295.608 189.337,295.491 189.516,295.374 189.694,295.256 189.873,295.139 190.051,295.022 190.23,294.904 190.408,294.787 190.587,294.67 190.765,294.552 190.944,294.435 191.123,294.318 191.301,294.2 191.48,294.083 191.658,293.966 191.837,293.848 192.015,293.731 192.194,293.614 192.372,293.496 192.551,293.379 192.73,293.262 192.908,293.144 193.087,293.027 193.265,292.91 193.444,292.792 193.622,292.675 193.801,292.558 193.98,292.44 194.158,292.323 194.337,292.206 194.515,292.088 194.694,291.971 194.872,291.854 195.051,291.736 195.229,291.619 195.408,291.502 195.587,291.384 195.765,291.267 195.944,291.15 196.122,291.032 196.301,290.915 196.479,290.798 196.658,290.68 196.836,290.563 197.015,290.446 197.194,290.328 197.372,290.211 197.551,290.094 197.729,289.976 197.908,289.859 198.086,289.742 198.265,289.624 198.444,289.507 198.622,289.39 198.801,289.272 198.979,289.155 199.158,289.038 199.336,288.92 199.515,288.803 199.693,288.686 199.872,288.568 200.051,288.451 200.229,288.334 200.408,288.216 200.586,288.099 200.765,287.982 200.943,287.864 201.122,287.747 201.3,287.63 201.479,287.512 201.658,287.395 201.836,287.278 202.015,287.16 202.193,287.043 202.372,286.926 202.55,286.808 202.729,286.691 202.908,286.574 203.086,286.456 203.265,286.339 203.443,286.222 203.622,286.104 203.8,285.987 203.979,285.87 204.157,285.752 204.336,285.635 204.515,285.518 204.693,285.4 204.872,285.283 205.05,285.166 205.229,285.048 205.407,284.931 205.586,284.814 205.764,284.696 205.943,284.579 206.122,284.462 206.3,284.344 206.479,284.227 206.657,284.11 206.836,283.992 207.014,283.875 207.193,283.758 207.372,283.64 207.55,283.523 207.729,283.406 207.907,283.288 208.086,283.171 208.264,283.054 208.443,282.936 208.621,282.819 208.8,282.702 208.979,282.584 209.157,282.467 209.336,282.35 209.514,282.232 209.693,282.115 209.871,281.998 210.05,281.88 210.228,281.763 210.407,281.646 210.586,281.528 210.764,281.411 210.943,281.294 211.121,281.176 211.3,281.059 211.478,280.942 211.657,280.824 211.836,280.707 212.014,280.59 212.193,280.472 212.371,280.355 212.55,280.238 212.728,280.12 212.907,280.003 213.085,279.886 213.264,279.768 213.443,279.651 213.621,279.534 213.8,279.416 213.978,279.299 214.157,279.182 214.335,279.064 214.514,278.947 214.692,278.83 214.871,278.712 215.05,278.595 215.228,278.478 215.407,278.36 215.585,278.243 215.764,278.126 215.942,278.008 216.121,277.891 216.299,277.774 216.478,277.656 216.657,277.539 216.835,277.422 217.014,277.304 217.192,277.187 217.371,277.07 217.549,276.952 217.728,276.835 217.907,276.718 218.085,276.6 218.264,276.483 218.442,276.366 218.621,276.248 218.799,276.131 218.978,276.014 219.156,275.896 219.335,275.779 219.514,275.662 219.692,275.544 219.871,275.427 220.049,275.31 220.228,275.192 220.406,275.075 220.585,274.958 220.764,274.84 220.942,274.723 221.121,274.606 221.299,274.488 221.478,274.371 221.656,274.254 221.835,274.136 222.013,274.019 222.192,273.902 222.371,273.784 222.549,273.667 222.728,273.55 222.906,273.432 223.085,273.315 223.263,273.198 223.442,273.08 223.62,272.963 223.799,272.846 223.978,272.728 224.156,272.611 224.335,272.494 224.513,272.376 224.692,272.259 224.87,272.142 225.049,272.024 225.228,271.907 225.406,271.79 225.585,271.672 225.763,271.555 225.942,271.438 226.12,271.32 226.299,271.203 226.477,271.086 226.656,270.968 226.835,270.851 227.013,270.734 227.192,270.616 227.37,270.499 227.549,270.382 227.727,270.264 227.906,270.147 228.084,270.03 228.263,269.912 228.442,269.795 228.62,269.678 228.799,269.56 228.977,269.443 229.156,269.326 229.334,269.208 229.513,269.091 229.691,268.974 229.87,268.856 230.049,268.739 230.227,268.622 230.406,268.504 230.584,268.387 230.763,268.27 230.941,268.152 231.12,268.035 231.299,267.918 231.477,267.8 231.656,267.683 231.834,267.566 232.013,267.448 232.191,267.331 232.37,267.214 232.548,267.096 232.727,266.979 232.906,266.862 233.084,266.744 233.263,266.627 233.441,266.51 233.62,266.392 233.798,266.275 233.977,266.158 234.156,266.04 234.334,265.923 234.513,265.806 234.691,265.688 234.87,265.571 235.048,265.454 235.227,265.336 235.405,265.219 235.584,265.102 235.763,264.984 235.941,264.867 236.12,264.75 236.298,264.632 236.477,264.515 236.655,264.398 236.834,264.28 237.012,264.163 237.191,264.046 237.37,263.928 237.548,263.811 237.727,263.694 237.905,263.576 238.084,263.459 238.262,263.342 238.441,263.224 238.62,263.107 238.798,262.99 238.977,262.872 239.155,262.755 239.334,262.638 239.512,262.52 239.691,262.403 239.869,262.286 240.048,262.168 240.227,262.051 240.405,261.934 240.584,261.816 240.762,261.699 240.941,261.582 241.119,261.464 241.298,261.347 241.476,261.23 241.655,261.112 241.834,260.995 242.012,260.878 242.191,260.76 242.369,260.643 242.548,260.526 242.726,260.408 242.905,260.291 243.084,260.174 243.262,260.056 243.441,259.939 243.619,259.822 243.798,259.704 243.976,259.587 244.155,259.47 244.333,259.352 244.512,259.235 244.691,259.118 244.869,259 245.048,258.883 245.226,258.766 245.405,258.648 245.583,258.531 245.762,258.414 245.94,258.296 246.119,258.179 246.298,258.062 246.476,257.944 246.655,257.827 246.833,257.71 247.012,257.592 247.19,257.475 247.369,257.358 247.548,257.24 247.726,257.123 247.905,257.006 248.083,256.888 248.262,256.771 248.44,256.654 248.619,256.536 248.797,256.419 248.976,256.302 249.155,256.184 249.333,256.067 249.512,255.95 249.69,255.832 249.869,255.715 250.047,255.598 250.226,255.48 250.404,255.363 250.583,255.246 250.762,255.128 250.94,255.011 251.119,254.894 251.297,254.776 251.476,254.659 251.654,254.542 251.833,254.424 252.012,254.307 252.19,254.19 252.369,254.072 252.547,253.955 252.726,253.838 252.904,253.72 253.083,253.603 253.261,253.486 253.44,253.368 253.619,253.251 253.797,253.134 253.976,253.016 254.154,252.899 254.333,252.782 254.511,252.664 254.69,252.547 254.868,252.43 255.047,252.312 255.226,252.195 255.404,252.078 255.583,251.96 255.761,251.843 255.94,251.726 256.118,251.608 256.297,251.491 256.475,251.374 256.654,251.256 256.833,251.139 257.011,251.022 257.19,250.904 257.368,250.787 257.547,250.67 257.725,250.552 257.904,250.435 258.083,250.318 258.261,250.2 258.44,250.083 258.618,249.966 258.797,249.848 258.975,249.731 259.154,249.614 259.332,249.496 259.511,249.379 259.69,249.262 259.868,249.144 260.047,249.027 260.225,248.91 260.404,248.792 260.582,248.675 260.761,248.558 260.94,248.44 261.118,248.323 261.297,248.206 261.475,248.088 261.654,247.971 261.832,247.854 262.011,247.736 262.189,247.619 262.368,247.502 262.547,247.384 262.725,247.267 262.904,247.15 263.082,247.032 263.261,246.915 263.439,246.798 263.618,246.68 263.796,246.563 263.975,246.446 264.154,246.328 264.332,246.211 264.511,246.094 264.689,245.976 264.868,245.859 265.046,245.742 265.225,245.624 265.404,245.507 265.582,245.39 265.761,245.272 265.939,245.155 266.118,245.038 266.296,244.92 266.475,244.803 266.653,244.686 266.832,244.568 267.011,244.451 267.189,244.334 267.368,244.216 267.546,244.099 267.725,243.982 267.903,243.864 268.082,243.747 268.26,243.63 268.439,243.512 268.618,243.395 268.796,243.278 268.975,243.16 269.153,243.043 269.332,242.926 269.51,242.808 269.689,242.691 269.868,242.574 270.046,242.456 270.225,242.339 270.403,242.222 270.582,242.104 270.76,241.987 270.939,241.87 271.117,241.752 271.296,241.635 271.475,241.518 271.653,241.4 271.832,241.283 272.01,241.166 272.189,241.048 272.367,240.931 272.546,240.814 272.724,240.696 272.903,240.579 273.082,240.462 273.26,240.344 273.439,240.227 273.617,240.11 273.796,239.992 273.974,239.875 274.153,239.758 274.331,239.64 274.51,239.523 274.689,239.406 274.867,239.288 275.046,239.171 275.224,239.054 275.403,238.936 275.581,238.819 275.76,238.702 275.939,238.584 276.117,238.467 276.296,238.35 276.474,238.232 276.653,238.115 276.831,237.998 277.01,237.88 277.188,237.763 277.367,237.646 277.546,237.528 277.724,237.411 277.903,237.294 278.081,237.176 278.26,237.059 278.438,236.942 278.617,236.824 278.796,236.707 278.974,236.59 279.153,236.472 279.331,236.355 279.51,236.238 279.688,236.12 279.867,236.003 280.045,235.886 280.224,235.768 280.403,235.651 280.581,235.534 280.76,235.416 280.938,235.299 281.117,235.182 281.295,235.064 281.474,234.947 281.652,234.83 281.831,234.712 282.01,234.595 282.188,234.478 282.367,234.36 282.545,234.243 282.724,234.126 282.902,234.008 283.081,233.891 283.259,233.774 283.438,233.656 283.617,233.539 283.795,233.422 283.974,233.304 284.152,233.187 284.331,233.07 284.509,232.952 284.688,232.835 284.867,232.718 285.045,232.6 285.224,232.483 285.402,232.366 285.581,232.248 285.759,232.131 285.938,232.014 286.116,231.896 286.295,231.779 286.474,231.662 286.652,231.544 286.831,231.427 287.009,231.31 287.188,231.192 287.366,231.075 287.545,230.958 287.724,230.84 287.902,230.723 288.081,230.606 288.259,230.488 288.438,230.371 288.616,230.254 288.795,230.136 288.973,230.019 289.152,229.902 289.331,229.784 289.509,229.667 289.688,229.55 289.866,229.432 290.045,229.315 290.223,229.198 290.402,229.08 290.58,228.963 290.759,228.846 290.938,228.728 291.116,228.611 291.295,228.494 291.473,228.376 291.652,228.259 291.83,228.142 292.009,228.024 292.188,227.907 292.366,227.79 292.545,227.672 292.723,227.555 292.902,227.438 293.08,227.32 293.259,227.203 293.437,227.086 293.616,226.968 293.795,226.851 293.973,226.734 294.152,226.616 294.33,226.499 294.509,226.382 294.687,226.264 294.866,226.147 295.044,226.03 295.223,225.912 295.402,225.795 295.58,225.678 295.759,225.56 295.937,225.443 296.116,225.326 296.294,225.208 296.473,225.091 296.652,224.974 296.83,224.856 297.009,224.739 297.187,224.622 297.366,224.504 297.544,224.387 297.723,224.27 297.901,224.152 298.08,224.035 298.259,223.918 298.437,223.8 298.616,223.683 298.794,223.566 298.973,223.448 299.151,223.331 299.33,223.214 299.508,223.096 299.687,222.979 299.866,222.862 300.044,222.744 300.223,222.627 300.401,222.51 300.58,222.392 300.758,222.275 300.937,222.158 301.116,222.04 301.294,221.923 301.473,221.806 301.651,221.688 301.83,221.571 302.008,221.454 302.187,221.336 302.365,221.219 302.544,221.102 302.723,220.984 302.901,220.867 303.08,220.75 303.258,220.632 303.437,220.515 303.615,220.398 303.794,220.28 303.972,220.163 304.151,220.046 304.33,219.928 304.508,219.811 304.687,219.694 304.865,219.576 305.044,219.459 305.222,219.342 305.401,219.224 305.579,219.107 305.758,218.99 305.937,218.872 306.115,218.755 306.294,218.638 306.472,218.52 306.651,218.403 306.829,218.286 307.008,218.168 307.187,218.051 307.365,217.934 307.544,217.816 307.722,217.699 307.901,217.582 308.079,217.464 308.258,217.347 308.436,217.23 308.615,217.112 308.794,216.995 308.972,216.878 309.151,216.76 309.329,216.643 309.508,216.526 309.686,216.408 309.865,216.291 310.043,216.174 310.222,216.056 310.401,215.939 310.579,215.822 310.758,215.704 310.936,215.587 311.115,215.47 311.293,215.352 311.472,215.235 311.651,215.118 311.829,215 312.008,214.883 312.186,214.766 312.365,214.648 312.543,214.531 312.722,214.414 312.9,214.296 313.079,214.179 313.258,214.062 313.436,213.944 313.615,213.827 313.793,213.71 313.972,213.592 314.15,213.475 314.329,213.358 314.508,213.24 314.686,213.123 314.865,213.006 315.043,212.888 315.222,212.771 315.4,212.654 315.579,212.536 315.757,212.419 315.936,212.302 316.115,212.184 316.293,212.067 316.472,211.95 316.65,211.832 316.829,211.715 317.007,211.598 317.186,211.48 317.364,211.363 317.543,211.246 317.722,211.128 317.9,211.011 318.079,210.894 318.257,210.777 318.436,210.659 318.614,210.542 318.793,210.424 318.971,210.307 319.15,210.19 319.329,210.072 319.507,209.955 319.686,209.838 319.864,209.72 320.043,209.603 320.221,209.486 320.4,209.368 320.579,209.251 320.757,209.134 320.936,209.016 321.114,208.899 321.293,208.782 321.471,208.665 321.65,208.547 321.828,208.43 322.007,208.312 322.186,208.195 322.364,208.078 322.543,207.96 322.721,207.843 322.9,207.726 323.078,207.609 323.257,207.491 323.435,207.374 323.614,207.257 323.793,207.139 323.971,207.022 324.15,206.904 324.328,206.787 324.507,206.67 324.685,206.553 324.864,206.435 325.043,206.318 325.221,206.201 325.4,206.083 325.578,205.966 325.757,205.849 325.935,205.731 326.114,205.614 326.292,205.497 326.471,205.379 326.65,205.262 326.828,205.145 327.007,205.027 327.185,204.91 327.364,204.793 327.542,204.675 327.721,204.558 327.9,204.44 328.078,204.323 328.257,204.206 328.435,204.089 328.614,203.971 328.792,203.854 328.971,203.736 329.149,203.619 329.328,203.502 329.507,203.384 329.685,203.267 329.864,203.15 330.042,203.033 330.221,202.915 330.399,202.798 330.578,202.68 330.756,202.563 330.935,202.446 331.114,202.329 331.292,202.211 331.471,202.094 331.649,201.977 331.828,201.859 332.006,201.742 332.185,201.625 332.363,201.507 332.542,201.39 332.721,201.273 332.899,201.155 333.078,201.038 333.256,200.921 333.435,200.803 333.613,200.686 333.792,200.568 333.971,200.451 334.149,200.334 334.328,200.217 334.506,200.099 334.685,199.982 334.863,199.865 335.042,199.747 335.22,199.63 335.399,199.513 335.578,199.395 335.756,199.278 335.935,199.161 336.113,199.043 336.292,198.926 336.47,198.809 336.649,198.691 336.828,198.574 337.006,198.457 337.185,198.339 337.363,198.222 337.542,198.105 337.72,197.987 337.899,197.87 338.077,197.753 338.256,197.635 338.435,197.518 338.613,197.401 338.792,197.283 338.97,197.166 339.149,197.049 339.327,196.931 339.506,196.814 339.684,196.697 339.863,196.579 340.042,196.462 340.22,196.345 340.399,196.227 340.577,196.11 340.756,195.993 340.934,195.875 341.113,195.758 341.292,195.641 341.47,195.523 341.649,195.406 341.827,195.289 342.006,195.171 342.184,195.054 342.363,194.937 342.541,194.819 342.72,194.702 342.899,194.585 343.077,194.467 343.256,194.35 343.434,194.233 343.613,194.115 343.791,193.998 343.97,193.881 344.148,193.763 344.327,193.646 344.506,193.529 344.684,193.411 344.863,193.294 345.041,193.177 345.22,193.059 345.398,192.942 345.577,192.825 345.755,192.707 345.934,192.59 346.113,192.473 346.291,192.355 346.47,192.238 346.648,192.121 346.827,192.003 347.005,191.886 347.184,191.769 347.363,191.651 347.541,191.534 347.72,191.417 347.898,191.299 348.077,191.182 348.255,191.065 348.434,190.947 348.612,190.83 348.791,190.713 348.97,190.595 349.148,190.478 349.327,190.361 349.505,190.243 349.684,190.126 349.862,190.009 350.041,189.891 350.219,189.774 350.398,189.657 350.577,189.539 350.755,189.422 350.934,189.305 351.112,189.187 351.291,189.07 351.469,188.953 351.648,188.835 351.827,188.718 352.005,188.601 352.184,188.483 352.362,188.366 352.541,188.249 352.719,188.131 352.898,188.014 353.076,187.897 353.255,187.779 353.434,187.662 353.612,187.545 353.791,187.427 353.969,187.31 354.148,187.193 354.326,187.075 354.505,186.958 354.684,186.841 354.862,186.723 355.041,186.606 355.219,186.489 355.398,186.371 355.576,186.254 355.755,186.137 355.933,186.019 356.112,185.902 356.291,185.785 356.469,185.667 356.648,185.55 356.826,185.433 357.005,185.315 357.183,185.198 357.362,185.081 357.54,184.963 357.719,184.846 357.898,184.729 358.076,184.611 358.255,184.494 358.433,184.377 358.612,184.259 358.79,184.142 358.969,184.025 359.147,183.907 359.326,183.79 359.505,183.673 359.683,183.555 359.862,183.438 360.04,183.321 360.219,183.203 360.397,183.086 360.576,182.969 360.755,182.851 360.933,182.734 361.112,182.617 361.29,182.499 361.469,182.382 361.647,182.265 361.826,182.147 362.004,182.03 362.183,181.913 362.362,181.795 362.54,181.678 362.719,181.561 362.897,181.443 363.076,181.326 363.254,181.209 363.433,181.091 363.611,180.974 363.79,180.857 363.969,180.739 364.147,180.622 364.326,180.505 364.504,180.387 364.683,180.27 364.861,180.153 365.04,180.035 365.219,179.918 365.397,179.801 365.576,179.683 365.754,179.566 365.933,179.449 366.111,179.331 366.29,179.214 366.468,179.097 366.647,178.979 366.826,178.862 367.004,178.745 367.183,178.627 367.361,178.51 367.54,178.393 367.718,178.275 367.897,178.158 368.076,178.041 368.254,177.923 368.433,177.806 368.611,177.689 368.79,177.571 368.968,177.454 369.147,177.337 369.325,177.219 369.504,177.102 369.683,176.985 369.861,176.867 370.04,176.75 370.218,176.633 370.397,176.515 370.575,176.398 370.754,176.281 370.932,176.163 371.111,176.046 371.29,175.929 371.468,175.811 371.647,175.694 371.825,175.577 372.004,175.459 372.182,175.342 372.361,175.225 372.539,175.107 372.718,174.99 372.897,174.873 373.075,174.755 373.254,174.638 373.432,174.521 373.611,174.403 373.789,174.286 373.968,174.169 374.147,174.051 374.325,173.934 374.504,173.817 374.682,173.699 374.861,173.582 375.039,173.465 375.218,173.347 375.396,173.23 375.575,173.113 375.754,172.995 375.932,172.878 376.111,172.761 376.289,172.643 376.468,172.526 376.646,172.409 376.825,172.291 377.004,172.174 377.182,172.057 377.361,171.939 377.539,171.822 377.718,171.705 377.896,171.587 378.075,171.47 378.253,171.353 378.432,171.235 378.611,171.118 378.789,171.001 378.968,170.883 379.146,170.766 379.325,170.649 379.503,170.531 379.682,170.414 379.86,170.297 380.039,170.179 380.218,170.062 380.396,169.945 380.575,169.827 380.753,169.71 380.932,169.593 381.11,169.475 381.289,169.358 381.467,169.241 381.646,169.123 381.825,169.006 382.003,168.889 382.182,168.771 382.36,168.654 382.539,168.537 382.717,168.419 382.896,168.302 383.075,168.185 383.253,168.067 383.432,167.95 383.61,167.833 383.789,167.715 383.967,167.598 384.146,167.481 384.324,167.363 384.503,167.246 384.682,167.129 384.86,167.011 385.039,166.894 385.217,166.777 385.396,166.659 385.574,166.542 385.753,166.425 385.932,166.307 386.11,166.19 386.289,166.073 386.467,165.955 386.646,165.838 386.824,165.721 387.003,165.603 387.181,165.486 387.36,165.369 387.539,165.251 387.717,165.134 387.896,165.017 388.074,164.899 388.253,164.782 388.431,164.665 388.61,164.547 388.788,164.43 388.967,164.313 389.146,164.195 389.324,164.078 389.503,163.961 389.681,163.843 389.86,163.726 390.038,163.609 390.217,163.491 390.396,163.374 390.574,163.257 390.753,163.139 390.931,163.022 391.11,162.905 391.288,162.787 391.467,162.67 391.645,162.553 391.824,162.435 392.003,162.318 392.181,162.201 392.36,162.083 392.538,161.966 392.717,161.849 392.895,161.731 393.074,161.614 393.252,161.497 393.431,161.379 393.61,161.262 393.788,161.145 393.967,161.027 394.145,160.91 394.324,160.793 394.502,160.675 394.681,160.558 394.859,160.441 395.038,160.323 395.217,160.206 395.395,160.089 395.574,159.971 395.752,159.854 395.931,159.737 396.109,159.619 396.288,159.502 396.467,159.385 396.645,159.267 396.824,159.15 397.002,159.033 397.181,158.915 397.359,158.798 397.538,158.681 397.716,158.563 397.895,158.446 398.074,158.329 398.252,158.211 398.431,158.094 398.609,157.977 398.788,157.859 398.966,157.742 399.145,157.625 399.323,157.507 399.502,157.39 399.681,157.273 399.859,157.155 400.038,157.038 400.216,156.921 400.395,156.803 400.573,156.686 400.752,156.569 400.931,156.451 401.109,156.334 401.288,156.217 401.466,156.099 401.645,155.982 401.823,155.865 402.002,155.747 402.18,155.63 402.359,155.513 402.538,155.395 402.716,155.278 402.895,155.161 403.073,155.043 403.252,154.926 403.43,154.809 403.609,154.691 403.787,154.574 403.966,154.457 404.145,154.339 404.323,154.222 404.502,154.105 404.68,153.987 404.859,153.87 405.037,153.753 405.216,153.635 405.395,153.518 405.573,153.401 405.752,153.283 405.93,153.166 406.109,153.049 406.287,152.931 406.466,152.814 406.644,152.697 406.823,152.579 407.002,152.462 407.18,152.345 407.359,152.227 407.537,152.11 407.716,151.993 407.894,151.875 408.073,151.758 408.252,151.641 408.43,151.523 408.609,151.406 408.787,151.289 408.966,151.171 409.144,151.054 409.323,150.937 409.501,150.819 409.68,150.702 409.859,150.585 410.037,150.467 410.216,150.35 410.394,150.233 410.573,150.115 410.751,149.998 410.93,149.881 411.108,149.763 411.287,149.646 411.466,149.529 411.644,149.411 411.823,149.294 412.001,149.177 412.18,149.059 412.358,148.942 412.537,148.825 412.715,148.707 412.894,148.59 413.073,148.473 413.251,148.355 413.43,148.238 413.608,148.121 413.787,148.003 413.965,147.886 414.144,147.769 414.323,147.651 414.501,147.534 414.68,147.417 414.858,147.299 415.037,147.182 415.215,147.065 415.394,146.947 415.572,146.83 415.751,146.713 415.93,146.595 416.108,146.478 416.287,146.361 416.465,146.243 416.644,146.126 416.822,146.009 417.001,145.891 417.179,145.774 417.358,145.657 417.537,145.539 417.715,145.422 417.894,145.305 418.072,145.187 418.251,145.07 418.429,144.953 418.608,144.835 418.787,144.718 418.965,144.601 419.144,144.483 419.322,144.366 419.501,144.249 419.679,144.131 419.858,144.014 420.036,143.897 420.215,143.779 420.394,143.662 420.572,143.545 420.751,143.427 420.929,143.31 421.108,143.193 421.286,143.075 421.465,142.958 421.643,142.841 421.822,142.723 422.001,142.606 422.179,142.489 422.358,142.371 422.536,142.254 422.715,142.137 422.893,142.019 423.072,141.902 423.251,141.785 423.429,141.667 423.608,141.55 423.786,141.433 423.965,141.315 424.143,141.198 424.322,141.081 424.5,140.963 424.679,140.846 424.858,140.729 425.036,140.611 425.215,140.494 425.393,140.377 425.572,140.259 425.75,140.142 425.929,140.025 426.107,139.907 426.286,139.79 426.465,139.673 426.643,139.555 426.822,139.438 427,139.321 427.179,139.203 427.357,139.086 427.536,138.969 427.715,138.851 427.893,138.734 428.072,138.617 428.25,138.499 428.429,138.382 428.607,138.265 428.786,138.147 428.964,138.03 429.143,137.913 429.322,137.795 429.5,137.678 429.679,137.561 429.857,137.443 430.036,137.326 430.214,137.209 430.393,137.091 430.572,136.974 430.75,136.857 430.929,136.739 431.107,136.622 431.286,136.505 431.464,136.387 431.643,136.27 431.821,136.153 432,136.035 432.179,135.918 432.357,135.801 432.536,135.683 432.714,135.566 432.893,135.449 433.071,135.331 433.25,135.214 433.428,135.097 433.607,134.979 433.786,134.862 433.964,134.745 434.143,134.627 434.321,134.51 434.5,134.393 434.678,134.275 434.857,134.158 435.035,134.041 435.214,133.923 435.393,133.806 435.571,133.689 435.75,133.571 435.928,133.454 436.107,133.337 436.285,133.219 436.464,133.102 436.643,132.985 436.821,132.867 437,132.75 437.178,132.633 437.357,132.515 437.535,132.398 437.714,132.281 437.892,132.163 438.071,132.046 438.25,131.929 438.428,131.811 438.607,131.694 438.785,131.577 438.964,131.459 439.142,131.342 439.321,131.225 439.5,131.107 439.678,130.99 439.857,130.873 440.035,130.755 440.214,130.638 440.392,130.521 440.571,130.403 440.749,130.286 440.928,130.169 441.107,130.051 441.285,129.934 441.464,129.817 441.642,129.699 441.821,129.582 441.999,129.465 442.178,129.347 442.356,129.23 442.535,129.113 442.714,128.995 442.892,128.878 443.071,128.761 443.249,128.643 443.428,128.526 443.606,128.409 443.785,128.291 443.964,128.174 444.142,128.057 444.321,127.939 444.499,127.822 444.678,127.705 444.856,127.587 445.035,127.47 445.213,127.353 445.392,127.235 445.571,127.118 445.749,127.001 445.928,126.883 446.106,126.766 446.285,126.649 446.463,126.531 446.642,126.414 446.82,126.297 446.999,126.179 447.178,126.062 447.356,125.945 447.535,125.827 447.713,125.71 447.892,125.593 448.07,125.475 448.249,125.358 448.427,125.241 448.606,125.123 448.785,125.006 448.963,124.889 449.142,124.771 449.32,124.654 449.499,124.537 449.677,124.419 449.856,124.302 450.035,124.185 450.213,124.067 450.392,123.95 450.57,123.833 450.749,123.715 450.927,123.598 451.106,123.481 451.284,123.363 451.463,123.246 451.642,123.129 451.82,123.011 451.999,122.894 452.177,122.777 452.356,122.659 452.534,122.542 452.713,122.425 452.891,122.307 453.07,122.19 453.249,122.073 453.427,121.955 453.606,121.838 453.784,121.721 453.963,121.603 454.141,121.486 454.32,121.369 454.499,121.251 454.677,121.134 454.856,121.017 455.034,120.899 455.213,120.782 455.391,120.665 455.57,120.547 455.748,120.43 455.927,120.313 456.106,120.195 456.284,120.078 456.463,119.961 456.641,119.843 456.82,119.726 456.998,119.609 457.177,119.491 457.355,119.374 457.534,119.257 457.713,119.139 457.891,119.022 458.07,118.905 458.248,118.787 458.427,118.67 458.605,118.553 458.784,118.435 458.963,118.318 459.141,118.201 459.32,118.083 459.498,117.966 459.677,117.849 459.855,117.731 460.034,117.614 460.212,117.497 460.391,117.379 460.57,117.262 460.748,117.145 460.927,117.027 461.105,116.91 461.284,116.793 461.462,116.675 461.641,116.558 461.82,116.441 461.998,116.323 462.177,116.206 462.355,116.089 462.534,115.971 462.712,115.854 462.891,115.737 463.069,115.619 463.248,115.502 463.427,115.385 463.605,115.267 463.784,115.15 463.962,115.033 464.141,114.915 464.319,114.798 464.498,114.681 464.676,114.563 464.855,114.446 465.034,114.329 465.212,114.211 465.391,114.094 465.569,113.977 465.748,113.859 465.926,113.742 466.105,113.625 466.284,113.507 466.462,113.39 466.641,113.273 466.819,113.155 466.998,113.038 467.176,112.921 467.355,112.803 467.533,112.686 467.712,112.569 467.891,112.451 468.069,112.334 468.248,112.217 468.426,112.099 468.605,111.982 468.783,111.865 468.962,111.747 469.14,111.63 469.319,111.513 469.498,111.395 469.676,111.278 469.855,111.161 470.033,111.043 470.212,110.926 470.39,110.809 470.569,110.691 470.747,110.574 470.926,110.457 471.105,110.339 471.283,110.222 471.462,110.105 471.64,109.987 471.819,109.87 471.997,109.753 472.176,109.635 472.355,109.518 472.533,109.401 472.712,109.283 472.89,109.166 473.069,109.049 473.247,108.931 473.426,108.814 473.604,108.697 473.783,108.579 473.962,108.462 474.14,108.345 474.319,108.227 474.497,108.11 474.676,107.993 474.854,107.875 475.033,107.758 475.211,107.641 475.39,107.523 475.569,107.406 475.747,107.289 475.926,107.171 476.104,107.054 476.283,106.937 476.461,106.819 476.64,106.702 476.819,106.585 476.997,106.467 477.176,106.35 477.354,106.233 477.533,106.115 477.711,105.998 477.89,105.881 478.068,105.763 478.247,105.646 478.426,105.529 478.604,105.411 478.783,105.294 478.961,105.177 479.14,105.059 479.318,104.942 479.497,104.825 479.675,104.707 479.854,104.59 480.033,104.473 480.211,104.355 480.39,104.238 480.568,104.121 480.747,104.003 480.925,103.886 481.104,103.769 481.283,103.651 481.461,103.534 481.64,103.417 481.818,103.299 481.997,103.182 482.175,103.065 482.354,102.947 482.532,102.83 482.711,102.713 482.89,102.595 483.068,102.478 483.247,102.361 483.425,102.243 483.604,102.126 483.782,102.009 483.961,101.891 484.139,101.774 484.318,101.657 484.497,101.539 484.675,101.422 484.854,101.305 485.032,101.187 485.211,101.07 485.389,100.953 485.568,100.835 485.747,100.718 485.925,100.601 486.104,100.483 486.282,100.366 486.461,100.249 486.639,100.131 486.818,100.014 486.996,99.8966 487.175,99.7793 487.354,99.662 487.532,99.5446 487.711,99.4273 487.889,99.31 488.068,99.1927 488.246,99.0753 488.425,98.958 488.603,98.8407 488.782,98.7233 488.961,98.606 489.139,98.4886 489.318,98.3713 489.496,98.254 489.675,98.1367 489.853,98.0193 490.032,97.902 490.211,97.7846 490.389,97.6673 490.568,97.55 490.746,97.4326 490.925,97.3153 491.103,97.198 491.282,97.0807 491.46,96.9633 491.639,96.846 491.818,96.7286 491.996,96.6113 492.175,96.494 492.353,96.3766 492.532,96.2593 492.71,96.142 492.889,96.0247 493.067,95.9073 493.246,95.79 493.425,95.6727 493.603,95.5553 493.782,95.438 493.96,95.3206 494.139,95.2033 494.317,95.086 494.496,94.9687 494.675,94.8513 494.853,94.734 495.032,94.6166 495.21,94.4993 495.389,94.382 495.567,94.2646 495.746,94.1473 495.924,94.03 496.103,93.9127 496.282,93.7953 496.46,93.678 496.639,93.5606 496.817,93.4433 496.996,93.326 497.174,93.2087 497.353,93.0913 497.531,92.974 497.71,92.8566 497.889,92.7393 498.067,92.622 498.246,92.5046 498.424,92.3873 498.603,92.27 498.781,92.1526 498.96,92.0353 499.139,91.918 499.317,91.8007 499.496,91.6833 499.674,91.566 499.853,91.4487 500.031,91.3313 500.21,91.214 500.388,91.0966 500.567,90.9793 500.746,90.862 500.924,90.7446 501.103,90.6273 501.281,90.51 501.46,90.3926 501.638,90.2753 501.817,90.158 501.995,90.0406 502.174,89.9233 502.353,89.806 502.531,89.6887 502.71,89.5713 502.888,89.454 503.067,89.3367 503.245,89.2193 503.424,89.102 503.603,88.9847 503.781,88.8673 503.96,88.75 504.138,88.6326 504.317,88.5153 504.495,88.398 504.674,88.2806 504.852,88.1633 505.031,88.046 505.21,87.9286 505.388,87.8113 505.567,87.694 505.745,87.5767 505.924,87.4594 506.102,87.342 506.281,87.2247 506.46,87.1073 506.638,86.99 506.817,86.8727 506.995,86.7553 507.174,86.638 507.352,86.5207 507.531,86.4033 507.709,86.286 507.888,86.1686 508.067,86.0513 508.245,85.934 508.424,85.8167 508.602,85.6993 508.781,85.582 508.959,85.4647 509.138,85.3474 509.316,85.23 509.495,85.1127 509.674,84.9953 509.852,84.878 510.031,84.7607 510.209,84.6433 510.388,84.526 510.566,84.4087 510.745,84.2913 510.923,84.174 511.102,84.0566 511.281,83.9393 511.459,83.822 511.638,83.7047 511.816,83.5873 511.995,83.47 512.173,83.3527 512.352,83.2353 512.531,83.118 512.709,83.0007 512.888,82.8833 513.066,82.766 513.245,82.6487 513.423,82.5313 513.602,82.414 513.78,82.2967 513.959,82.1793 514.138,82.062 514.316,81.9447 514.495,81.8273 514.673,81.71 514.852,81.5927 515.03,81.4753 515.209,81.358 515.388,81.2407 515.566,81.1233 515.745,81.006 515.923,80.8887 516.102,80.7713 516.28,80.654 516.459,80.5367 516.637,80.4193 516.816,80.302 516.995,80.1847 517.173,80.0673 517.352,79.95 517.53,79.8327 517.709,79.7153 517.887,79.598 518.066,79.4807 518.244,79.3633 518.423,79.246 518.602,79.1287 518.78,79.0114 518.959,78.894 519.137,78.7767 519.316,78.6593 519.494,78.542 519.673,78.4247 519.852,78.3073 520.03,78.19 520.209,78.0727 520.387,77.9553 520.566,77.838 520.744,77.7207 520.923,77.6033 521.101,77.486 521.28,77.3687"/>
<polyline fill="none" stroke="#000000" stroke-width="0.5" stroke-dasharray="16,0" points="424.33,66.7325 518.037,66.7325"/>
<polyline fill="none" stroke="#000000" stroke-width="0.5" stroke-dasharray="16,0" points="424.33,35.6351 518.037,35.6351"/>
<polyline fill="none" stroke="#000000" stroke-width="0.5" stroke-dasharray="16,0" points="424.33,66.7325 424.33,35.6351"/>
<polyline fill="none" stroke="#000000" stroke-width="0.5" stroke-dasharray="16,0" points="518.037,66.7325 518.037,35.6351"/>
<text fill="#000000" x="455.137" y="43.4095" font-size="10" text-anchor="start" baseline-shift="-5" font-family="Helvetica">data</text>
<text fill="#000000" x="455.137" y="58.9582" font-size="10" text-anchor="start" baseline-shift="-5" font-family="Helvetica">regression</text>
<polyline fill="none" stroke="#ff0000" stroke-width="0.5" points="434.734,38.4095 444.734,48.4095"/>
<polyline fill="none" stroke="#ff0000" stroke-width="0.5" points="434.734,48.4095 444.734,38.4095"/>
<polyline fill="none" stroke="#0000ff" stroke-width="0.5" points="427.573,58.9582 451.894,58.9582"/>
<polyline fill="none" stroke="#000000" stroke-width="0.5" stroke-dasharray="16,0" points="74.88,384.48 521.28,384.48"/>
<polyline fill="none" stroke="#000000" stroke-width="0.5" stroke-dasharray="16,0" points="74.88,32.4 521.28,32.4"/>
<polyline fill="none" stroke="#000000" stroke-width="0.5" stroke-dasharray="16,0" points="74.88,384.48 74.88,32.4"/>
<text fill="#000000" x="298.08" y="22.4" font-size="10" text-anchor="middle" baseline-shift="0" font-family="Helvetica">Univariate regression plot</text>
</g>
</svg>
